<svg width="153" height="40" viewBox="0 0 153 40" fill="none" xmlns="http://www.w3.org/2000/svg">
<path fill-rule="evenodd" clip-rule="evenodd" d="M133 34C125.268 34 119 27.732 119 20C119 12.268 125.268 6 133 6C140.732 6 147 12.268 147 20H153C153 8.9543 144.046 0 133 0C121.954 0 113 8.9543 113 20C113 31.0457 121.954 40 133 40V34Z" fill="#3534FF"/>
<path d="M145 25.2H138V32.2H145V25.2Z" fill="#4948FF"/>
<path d="M138 17.5H131V24.5H138V17.5Z" fill="#3534FF"/>
<path d="M152 32.8999H145V39.8999H152V32.8999Z" fill="#908FFF"/>
<path d="M3.41484 6.25291V27.1298H0V6.25291H3.41484Z" fill="#262626"/>
<path d="M6.75995 18.7791C6.75995 17.1169 7.09944 15.645 7.77841 14.3634C8.47736 13.0817 9.41594 12.0904 10.5942 11.3895C11.7924 10.6686 13.1203 10.3081 14.5781 10.3081C15.6565 10.3081 16.7149 10.5485 17.7533 11.0291C18.8118 11.4897 19.6505 12.1105 20.2696 12.8915V4.90116H23.7143V27.1298H20.2696V24.6366C19.7104 25.4377 18.9316 26.0985 17.9331 26.6192C16.9546 27.1399 15.8263 27.4002 14.5482 27.4002C13.1104 27.4002 11.7924 27.0397 10.5942 26.3188C9.41594 25.5778 8.47736 24.5565 7.77841 23.2548C7.09944 21.9331 6.75995 20.4412 6.75995 18.7791ZM20.2696 18.8391C20.2696 17.6977 20.0299 16.7064 19.5506 15.8653C19.0913 15.0242 18.4823 14.3834 17.7234 13.9428C16.9645 13.5023 16.1458 13.282 15.2671 13.282C14.3884 13.282 13.5697 13.5023 12.8108 13.9428C12.052 14.3634 11.4329 14.9942 10.9536 15.8353C10.4943 16.6563 10.2647 17.6376 10.2647 18.7791C10.2647 19.9205 10.4943 20.9218 10.9536 21.7829C11.4329 22.6441 12.052 23.3049 12.8108 23.7655C13.5896 24.2061 14.4084 24.4264 15.2671 24.4264C16.1458 24.4264 16.9645 24.2061 17.7234 23.7655C18.4823 23.3249 19.0913 22.6841 19.5506 21.843C20.0299 20.9819 20.2696 19.9806 20.2696 18.8391Z" fill="#262626"/>
<path d="M43.3268 18.4486C43.3268 19.0694 43.2868 19.6302 43.207 20.1308H30.596C30.6958 21.4525 31.1851 22.5139 32.0638 23.3149C32.9424 24.116 34.0208 24.5165 35.2989 24.5165C37.1361 24.5165 38.4342 23.7455 39.193 22.2035H42.8774C42.3782 23.7255 41.4696 24.9771 40.1516 25.9583C38.8535 26.9196 37.236 27.4002 35.2989 27.4002C33.7213 27.4002 32.3034 27.0497 31.0453 26.3488C29.8072 25.6279 28.8287 24.6266 28.1097 23.345C27.4108 22.0433 27.0613 20.5413 27.0613 18.8391C27.0613 17.137 27.4008 15.645 28.0798 14.3634C28.7787 13.0617 29.7473 12.0604 30.9854 11.3595C32.2435 10.6586 33.6813 10.3081 35.2989 10.3081C36.8565 10.3081 38.2444 10.6486 39.4626 11.3295C40.6808 12.0103 41.6293 12.9716 42.3083 14.2132C42.9873 15.4348 43.3268 16.8466 43.3268 18.4486ZM39.7621 17.3672C39.7422 16.1056 39.2929 15.0943 38.4142 14.3333C37.5355 13.5724 36.4472 13.1919 35.1491 13.1919C33.9709 13.1919 32.9624 13.5724 32.1237 14.3333C31.285 15.0743 30.7857 16.0856 30.6259 17.3672H39.7621Z" fill="#262626"/>
<path d="M55.0147 10.3081C56.3128 10.3081 57.471 10.5785 58.4895 11.1192C59.5279 11.6599 60.3367 12.4609 60.9158 13.5223C61.495 14.5837 61.7845 15.8653 61.7845 17.3672V27.1298H58.3996V17.8779C58.3996 16.396 58.0302 15.2645 57.2913 14.4835C56.5524 13.6825 55.5439 13.282 54.2659 13.282C52.9878 13.282 51.9693 13.6825 51.2105 14.4835C50.4716 15.2645 50.1022 16.396 50.1022 17.8779V27.1298H46.6873V10.5785H50.1022V12.4709C50.6613 11.7901 51.3702 11.2594 52.2289 10.8789C53.1076 10.4984 54.0362 10.3081 55.0147 10.3081Z" fill="#262626"/>
<path d="M70.1244 13.3721V22.5339C70.1244 23.1547 70.2641 23.6053 70.5437 23.8857C70.8433 24.146 71.3425 24.2762 72.0415 24.2762H74.1383V27.1298H71.4424C69.9047 27.1298 68.7265 26.7694 67.9077 26.0485C67.0889 25.3275 66.6796 24.156 66.6796 22.5339V13.3721H64.7325V10.5785H66.6796V6.46318H70.1244V10.5785H74.1383V13.3721H70.1244Z" fill="#262626"/>
<path d="M79.023 8.38566C78.404 8.38566 77.8847 8.17539 77.4654 7.75484C77.046 7.3343 76.8363 6.81363 76.8363 6.19283C76.8363 5.57203 77.046 5.05136 77.4654 4.63081C77.8847 4.21027 78.404 4 79.023 4C79.6221 4 80.1313 4.21027 80.5507 4.63081C80.9701 5.05136 81.1798 5.57203 81.1798 6.19283C81.1798 6.81363 80.9701 7.3343 80.5507 7.75484C80.1313 8.17539 79.6221 8.38566 79.023 8.38566ZM80.7005 10.5785V27.1298H77.2856V10.5785H80.7005Z" fill="#262626"/>
<path d="M84.0456 18.7791C84.0456 17.1169 84.3851 15.645 85.0641 14.3634C85.763 13.0817 86.7016 12.0904 87.8798 11.3895C89.078 10.6686 90.406 10.3081 91.8638 10.3081C93.1419 10.3081 94.2702 10.5685 95.2487 11.0891C96.2472 11.6098 97.016 12.2406 97.5552 12.9816V10.5785H101V35H97.5552V24.7267C97.016 25.4677 96.2372 26.0985 95.2187 26.6192C94.2003 27.1399 93.042 27.4002 91.744 27.4002C90.3261 27.4002 89.0281 27.0397 87.8499 26.3188C86.6916 25.5778 85.763 24.5565 85.0641 23.2548C84.3851 21.9331 84.0456 20.4412 84.0456 18.7791ZM97.5552 18.8391C97.5552 17.6977 97.3156 16.7064 96.8363 15.8653C96.377 15.0242 95.7679 14.3834 95.009 13.9428C94.2502 13.5023 93.4314 13.282 92.5527 13.282C91.6741 13.282 90.8553 13.5023 90.0965 13.9428C89.3376 14.3634 88.7185 14.9942 88.2393 15.8353C87.78 16.6563 87.5503 17.6376 87.5503 18.7791C87.5503 19.9205 87.78 20.9218 88.2393 21.7829C88.7185 22.6441 89.3376 23.3049 90.0965 23.7655C90.8753 24.2061 91.694 24.4264 92.5527 24.4264C93.4314 24.4264 94.2502 24.2061 95.009 23.7655C95.7679 23.3249 96.377 22.6841 96.8363 21.843C97.3156 20.9819 97.5552 19.9806 97.5552 18.8391Z" fill="#262626"/>
</svg>
